<?xml version="1.0" standalone="no"?>
<!DOCTYPE svg PUBLIC "-//W3C//DTD SVG 20010904//EN"
 "http://www.w3.org/TR/2001/REC-SVG-20010904/DTD/svg10.dtd">
<svg version="1.0" xmlns="http://www.w3.org/2000/svg"
 width="500.000000pt" height="500.000000pt" viewBox="0 0 500.000000 500.000000"
 preserveAspectRatio="xMidYMid meet">

<g transform="translate(0.000000,500.000000) scale(0.100000,-0.100000)"
fill="#000000" stroke="none">
<path d="M2295 4990 c-354 -30 -729 -147 -1035 -323 -677 -390 -1117 -1046
-1236 -1844 -22 -147 -22 -499 0 -646 85 -573 321 -1050 712 -1441 818 -818
2081 -967 3072 -363 483 295 868 773 1049 1302 187 551 187 1108 -1 1652 -219
634 -710 1170 -1327 1448 -380 172 -823 249 -1234 215z m1713 -1392 c63 -114
68 -127 99 -258 50 -212 41 -528 -21 -773 -75 -293 -277 -552 -534 -681 -229
-115 -469 -156 -912 -156 -369 0 -439 12 -493 83 -45 60 -47 81 -47 449 l0
348 43 26 c23 14 110 65 192 114 83 49 153 90 158 90 4 0 7 -150 7 -334 0
-195 4 -345 10 -361 5 -14 22 -30 37 -36 37 -14 318 -13 422 1 261 36 463 132
587 281 211 253 246 748 74 1052 -17 31 -28 57 -23 57 4 0 80 43 168 95 88 52
165 95 171 95 6 0 34 -42 62 -92z m-2490 -1598 c1 -159 -14 -211 -74 -253 -62
-43 -152 -49 -227 -14 -44 20 -61 35 -83 73 -26 44 -29 57 -27 131 1 46 4 87
8 92 5 9 35 27 280 168 l110 64 6 -68 c4 -37 7 -124 7 -193z m-357 -540 c17
-10 19 -22 19 -135 0 -69 3 -125 8 -125 4 0 56 56 116 125 60 69 116 130 125
134 9 5 26 5 39 0 44 -17 28 -52 -69 -159 l-91 -100 101 -119 c106 -125 121
-159 81 -181 -12 -6 -29 -8 -39 -5 -11 3 -58 57 -106 120 -48 64 -90 117 -94
120 -5 2 -22 -10 -39 -28 -29 -30 -31 -37 -34 -116 -3 -95 -16 -114 -62 -93
l-26 12 0 262 c0 145 4 268 8 274 6 9 23 19 40 23 2 1 12 -4 23 -9z m802 -18
c55 -25 115 -87 138 -144 25 -60 24 -163 -1 -231 -29 -77 -107 -149 -179 -167
-66 -16 -146 -8 -199 19 -51 26 -119 103 -132 150 -13 47 -13 156 0 203 21 76
116 170 191 189 49 12 131 4 182 -19z m919 4 c4 -6 8 -127 8 -268 l0 -258 -25
-16 c-23 -15 -27 -15 -49 -1 l-24 16 3 263 c3 237 5 263 21 275 19 14 54 8 66
-11z m1126 -8 c51 -26 67 -63 37 -88 -14 -11 -23 -10 -61 8 -99 49 -184 35
-248 -39 -88 -103 -60 -278 53 -325 101 -42 208 7 227 103 l6 32 -57 3 c-65 3
-89 23 -69 56 17 26 174 30 199 5 26 -26 16 -128 -19 -188 -87 -148 -330 -151
-431 -5 -116 167 -41 394 150 457 58 19 156 10 213 -19z m-1498 5 c77 -25 143
-88 165 -159 30 -96 8 -224 -51 -293 -55 -64 -110 -84 -245 -89 -173 -7 -159
-31 -159 273 0 217 2 256 16 269 22 23 203 22 274 -1z m745 -185 l140 -196 5
196 5 197 30 3 c53 6 55 -6 55 -283 0 -182 -3 -254 -12 -263 -7 -7 -26 -12
-44 -12 -34 0 -40 8 -244 304 -36 52 -69 95 -74 96 -5 0 -7 -77 -3 -186 5
-174 4 -187 -14 -205 -23 -23 -28 -23 -57 -3 -22 15 -22 18 -22 269 0 282 2
289 64 283 28 -3 45 -23 171 -200z"/>
<path d="M1765 1361 c-64 -39 -95 -100 -95 -185 0 -66 12 -101 48 -140 97
-104 261 -58 302 85 26 90 -9 190 -82 233 -55 32 -128 35 -173 7z"/>
<path d="M2310 1186 l0 -196 26 -6 c42 -11 155 14 191 42 49 37 66 78 67 159
0 56 -4 78 -21 106 -34 54 -93 82 -185 87 l-78 5 0 -197z"/>
</g>
</svg>
